<svg width="512" height="512" version="1.1" xmlns="http://www.w3.org/2000/svg" desc="Created with imagetracer.js version 1.2.6" ><path fill="rgb(31,25,24)" stroke="rgb(31,25,24)" stroke-width="1" opacity="0.3803921568627451" d="M 0 0 L 61 0 L 61 30 L 0 30 L 0 0 Z " /><path fill="rgb(31,25,24)" stroke="rgb(31,25,24)" stroke-width="1" opacity="0.3803921568627451" d="M 91 0 L 151 0 L 151 30 L 91 30 L 91 0 Z " /><path fill="rgb(31,25,24)" stroke="rgb(31,25,24)" stroke-width="1" opacity="0.3803921568627451" d="M 181 0 L 241 0 L 241 30 L 181 30 L 181 0 Z " /><path fill="rgb(31,25,24)" stroke="rgb(31,25,24)" stroke-width="1" opacity="0.3803921568627451" d="M 271 0 L 331 0 L 331 30 L 271 30 L 271 0 Z " /><path fill="rgb(31,25,24)" stroke="rgb(31,25,24)" stroke-width="1" opacity="0.3803921568627451" d="M 361 0 L 421 0 L 421 30 L 361 30 L 361 0 Z " /><path fill="rgb(31,25,24)" stroke="rgb(31,25,24)" stroke-width="1" opacity="0.3803921568627451" d="M 451 0 L 512 0 L 512 30 L 451 30 L 451 0 Z " /><path fill="rgb(255,112,55)" stroke="rgb(255,112,55)" stroke-width="1" opacity="1" d="M 271 30 L 331 30 L 331 90 L 361 90 L 361 30 L 421 30 L 421 90 L 451 90 L 451 30 L 512 30 L 512 150 L 256 150 L 256 90.5 L 256.5 90 L 270.5 90 L 271 89.5 L 271 30 Z " /><path fill="rgb(255,159,34)" stroke="rgb(255,159,34)" stroke-width="1" opacity="1" d="M 0 30 L 61 30 L 61 90 L 91 90 L 91 30 L 151 30 L 151 90 L 181 90 L 181 30 L 241 30 L 241 89.5 L 241.5 90 L 255.5 90 L 256 90.5 L 256 150 L 0 150 L 0 30 Z " /><path fill="rgb(247,243,234)" stroke="rgb(247,243,234)" stroke-width="1" opacity="1" d="M 172.5 224 L 171.5 226 L 172.5 224 Z " /><path fill="rgb(247,243,234)" stroke="rgb(247,243,234)" stroke-width="1" opacity="1" d="M 166.5 229 L 165.5 231 L 166.5 229 Z " /><path fill="rgb(247,243,234)" stroke="rgb(247,243,234)" stroke-width="1" opacity="1" d="M 156.5 239 L 154.5 242 L 156.5 239 Z " /><path fill="rgb(247,243,234)" stroke="rgb(247,243,234)" stroke-width="1" opacity="1" d="M 150.5 246 L 149.5 248 L 150.5 246 Z " /><path fill="rgb(247,243,234)" stroke="rgb(247,243,234)" stroke-width="1" opacity="1" d="M 149.5 414 L 150.5 416 L 149.5 414 Z " /><path fill="rgb(247,243,234)" stroke="rgb(247,243,234)" stroke-width="1" opacity="1" d="M 154.5 420 L 156.5 423 L 154.5 420 Z " /><path fill="rgb(247,243,234)" stroke="rgb(247,243,234)" stroke-width="1" opacity="1" d="M 164.5 430 L 166.5 433 L 164.5 430 Z " /><path fill="rgb(247,243,234)" stroke="rgb(247,243,234)" stroke-width="1" opacity="1" d="M 171.5 436 L 172.5 438 L 171.5 436 Z " /><path fill="rgb(255,245,244)" stroke="rgb(255,245,244)" stroke-width="1" opacity="1" d="M 168.5 227 L 167.5 229 L 168.5 227 Z " /><path fill="rgb(255,245,244)" stroke="rgb(255,245,244)" stroke-width="1" opacity="1" d="M 153.5 242 L 152.5 244 L 153.5 242 Z " /><path fill="rgb(255,245,244)" stroke="rgb(255,245,244)" stroke-width="1" opacity="1" d="M 152.5 418 L 153.5 420 L 152.5 418 Z " /><path fill="rgb(255,245,244)" stroke="rgb(255,245,244)" stroke-width="1" opacity="1" d="M 167.5 433 L 168.5 435 L 167.5 433 Z " /><path fill="rgb(255,245,245)" stroke="rgb(255,245,245)" stroke-width="1" opacity="1" d="M 0 150 L 255.5 150 L 256 150.5 L 256 196 L 240.5 196 L 239.5 197 L 227.5 198 L 202.5 206 Q 171.9 219.4 152 243.5 Q 134 264.5 125 294.5 L 121 315.5 L 121 346.5 L 125 367.5 Q 129.9 384.6 138 398.5 Q 150.3 419.7 168.5 435 Q 185.2 449.3 207.5 458 L 227.5 464 L 239.5 465 L 240.5 466 L 256 466 L 256 511.5 L 255.5 512 L 0 512 L 0 150 Z " /><path fill="rgb(255,245,245)" stroke="rgb(255,245,245)" stroke-width="1" opacity="1" d="M 206.5 321 L 241.5 355 L 256 341.5 L 256 381.5 L 241.5 396 L 186 341.5 L 206.5 321 Z " /><path fill="rgb(206,231,200)" stroke="rgb(206,231,200)" stroke-width="1" opacity="1" d="M 242.5 196 L 247 196.5 L 242.5 197 L 242.5 196 Z " /><path fill="rgb(206,231,200)" stroke="rgb(206,231,200)" stroke-width="1" opacity="1" d="M 269.5 196 L 272 196.5 L 269.5 197 L 269.5 196 Z " /><path fill="rgb(206,231,200)" stroke="rgb(206,231,200)" stroke-width="1" opacity="1" d="M 234.5 197 L 237 197.5 L 234.5 198 L 234.5 197 Z " /><path fill="rgb(206,231,200)" stroke="rgb(206,231,200)" stroke-width="1" opacity="1" d="M 187.5 214 L 186.5 216 L 187.5 214 Z " /><path fill="rgb(206,231,200)" stroke="rgb(206,231,200)" stroke-width="1" opacity="1" d="M 335.5 221 L 336.5 223 L 335.5 221 Z " /><path fill="rgb(206,231,200)" stroke="rgb(206,231,200)" stroke-width="1" opacity="1" d="M 175.5 222 L 174.5 224 L 175.5 222 Z " /><path fill="rgb(206,231,200)" stroke="rgb(206,231,200)" stroke-width="1" opacity="1" d="M 339.5 224 L 340.5 226 L 339.5 224 Z " /><path fill="rgb(206,231,200)" stroke="rgb(206,231,200)" stroke-width="1" opacity="1" d="M 170.5 226 L 168.5 229 L 170.5 226 Z " /><path fill="rgb(206,231,200)" stroke="rgb(206,231,200)" stroke-width="1" opacity="1" d="M 345.5 229 L 357.5 242 L 345.5 229 Z " /><path fill="rgb(206,231,200)" stroke="rgb(206,231,200)" stroke-width="1" opacity="1" d="M 162.5 233 L 158.5 238 L 162.5 233 Z " /><path fill="rgb(206,231,200)" stroke="rgb(206,231,200)" stroke-width="1" opacity="1" d="M 153.5 243 L 151.5 246 L 153.5 243 Z " /><path fill="rgb(206,231,200)" stroke="rgb(206,231,200)" stroke-width="1" opacity="1" d="M 361.5 246 L 362.5 248 L 361.5 246 Z " /><path fill="rgb(206,231,200)" stroke="rgb(206,231,200)" stroke-width="1" opacity="1" d="M 148.5 249 L 147.5 251 L 148.5 249 Z " /><path fill="rgb(206,231,200)" stroke="rgb(206,231,200)" stroke-width="1" opacity="1" d="M 364.5 250 L 365.5 252 L 364.5 250 Z " /><path fill="rgb(206,231,200)" stroke="rgb(206,231,200)" stroke-width="1" opacity="1" d="M 305.5 290 L 327 311.5 L 301.5 337 L 326 311.5 L 305.5 291 L 284 311.5 L 305.5 290 Z " /><path fill="rgb(206,231,200)" stroke="rgb(206,231,200)" stroke-width="1" opacity="1" d="M 122.5 309 L 123 311.5 L 122 311.5 L 122.5 309 Z " /><path fill="rgb(206,231,200)" stroke="rgb(206,231,200)" stroke-width="1" opacity="1" d="M 390.5 315 L 391 317.5 L 390 317.5 L 390.5 315 Z " /><path fill="rgb(206,231,200)" stroke="rgb(206,231,200)" stroke-width="1" opacity="1" d="M 121.5 317 L 122 321.5 L 121 321.5 L 121.5 317 Z " /><path fill="rgb(206,231,200)" stroke="rgb(206,231,200)" stroke-width="1" opacity="1" d="M 205.5 321 L 186.5 341 L 205.5 321 Z " /><path fill="rgb(206,231,200)" stroke="rgb(206,231,200)" stroke-width="1" opacity="1" d="M 207.5 321 L 241.5 354 L 256 340.5 L 240.5 355 L 207.5 321 Z " /><path fill="rgb(206,231,200)" stroke="rgb(206,231,200)" stroke-width="1" opacity="1" d="M 298.5 339 L 297.5 341 L 298.5 339 Z " /><path fill="rgb(206,231,200)" stroke="rgb(206,231,200)" stroke-width="1" opacity="1" d="M 121.5 340 L 122 344.5 L 121 344.5 L 121.5 340 Z " /><path fill="rgb(206,231,200)" stroke="rgb(206,231,200)" stroke-width="1" opacity="1" d="M 186.5 342 L 241.5 396 L 256 382.5 L 240.5 397 L 186.5 342 Z " /><path fill="rgb(206,231,200)" stroke="rgb(206,231,200)" stroke-width="1" opacity="1" d="M 390.5 344 L 391 346.5 L 390 346.5 L 390.5 344 Z " /><path fill="rgb(206,231,200)" stroke="rgb(206,231,200)" stroke-width="1" opacity="1" d="M 122.5 350 L 123 352.5 L 122 352.5 L 122.5 350 Z " /><path fill="rgb(206,231,200)" stroke="rgb(206,231,200)" stroke-width="1" opacity="1" d="M 139.5 399 L 140.5 401 L 139.5 399 Z " /><path fill="rgb(206,231,200)" stroke="rgb(206,231,200)" stroke-width="1" opacity="1" d="M 365.5 410 L 364.5 412 L 365.5 410 Z " /><path fill="rgb(206,231,200)" stroke="rgb(206,231,200)" stroke-width="1" opacity="1" d="M 147.5 411 L 148.5 413 L 147.5 411 Z " /><path fill="rgb(206,231,200)" stroke="rgb(206,231,200)" stroke-width="1" opacity="1" d="M 362.5 414 L 360.5 417 L 362.5 414 Z " /><path fill="rgb(206,231,200)" stroke="rgb(206,231,200)" stroke-width="1" opacity="1" d="M 151.5 416 L 153.5 419 L 151.5 416 Z " /><path fill="rgb(206,231,200)" stroke="rgb(206,231,200)" stroke-width="1" opacity="1" d="M 357.5 420 L 345.5 433 L 357.5 420 Z " /><path fill="rgb(206,231,200)" stroke="rgb(206,231,200)" stroke-width="1" opacity="1" d="M 158.5 424 L 162.5 429 L 158.5 424 Z " /><path fill="rgb(206,231,200)" stroke="rgb(206,231,200)" stroke-width="1" opacity="1" d="M 168.5 433 L 170.5 436 L 168.5 433 Z " /><path fill="rgb(206,231,200)" stroke="rgb(206,231,200)" stroke-width="1" opacity="1" d="M 341.5 435 L 339.5 438 L 341.5 435 Z " /><path fill="rgb(206,231,200)" stroke="rgb(206,231,200)" stroke-width="1" opacity="1" d="M 174.5 438 L 175.5 440 L 174.5 438 Z " /><path fill="rgb(206,231,200)" stroke="rgb(206,231,200)" stroke-width="1" opacity="1" d="M 336.5 439 L 335.5 441 L 336.5 439 Z " /><path fill="rgb(206,231,200)" stroke="rgb(206,231,200)" stroke-width="1" opacity="1" d="M 234.5 464 L 237 464.5 L 234.5 465 L 234.5 464 Z " /><path fill="rgb(206,231,200)" stroke="rgb(206,231,200)" stroke-width="1" opacity="1" d="M 242.5 465 L 247 465.5 L 242.5 466 L 242.5 465 Z " /><path fill="rgb(206,231,200)" stroke="rgb(206,231,200)" stroke-width="1" opacity="1" d="M 269.5 465 L 272 465.5 L 269.5 466 L 269.5 465 Z " /><path fill="rgb(97,174,114)" stroke="rgb(97,174,114)" stroke-width="1" opacity="1" d="M 61 0 L 91 0 L 91 90 L 61 90 L 61 0 Z " /><path fill="rgb(97,174,114)" stroke="rgb(97,174,114)" stroke-width="1" opacity="1" d="M 151 0 L 181 0 L 181 90 L 151 90 L 151 0 Z " /><path fill="rgb(97,174,114)" stroke="rgb(97,174,114)" stroke-width="1" opacity="1" d="M 241 0 L 271 0 L 271 90 L 241 90 L 241 0 Z " /><path fill="rgb(97,174,114)" stroke="rgb(97,174,114)" stroke-width="1" opacity="1" d="M 331 0 L 361 0 L 361 90 L 331 90 L 331 0 Z " /><path fill="rgb(97,174,114)" stroke="rgb(97,174,114)" stroke-width="1" opacity="1" d="M 421 0 L 451 0 L 451 90 L 421 90 L 421 0 Z " /><path fill="rgb(97,174,114)" stroke="rgb(97,174,114)" stroke-width="1" opacity="1" d="M 256 196 L 265.5 196 L 266.5 197 L 274.5 197 L 285.5 199 L 314.5 209 Q 340.8 222.2 359 243.5 Q 377.1 263.9 386 293.5 L 391 321.5 L 391 340.5 L 386 368.5 L 378 389.5 Q 364.8 415.8 343.5 434 Q 326.1 449.1 302.5 458 Q 282.6 465.9 256 466 L 256 382.5 L 327 311.5 L 305.5 290 L 256 338.5 L 256 196 Z " /><path fill="rgb(225,235,239)" stroke="rgb(225,235,239)" stroke-width="1" opacity="1" d="M 343.5 227 L 344.5 229 L 343.5 227 Z " /><path fill="rgb(225,235,239)" stroke="rgb(225,235,239)" stroke-width="1" opacity="1" d="M 164.5 231 L 163.5 233 L 164.5 231 Z " /><path fill="rgb(225,235,239)" stroke="rgb(225,235,239)" stroke-width="1" opacity="1" d="M 358.5 242 L 359.5 244 L 358.5 242 Z " /><path fill="rgb(225,235,239)" stroke="rgb(225,235,239)" stroke-width="1" opacity="1" d="M 283.5 312 L 256.5 340 L 283.5 312 Z " /><path fill="rgb(225,235,239)" stroke="rgb(225,235,239)" stroke-width="1" opacity="1" d="M 300.5 337 L 299.5 339 L 300.5 337 Z " /><path fill="rgb(225,235,239)" stroke="rgb(225,235,239)" stroke-width="1" opacity="1" d="M 296.5 341 L 256.5 382 L 296.5 341 Z " /><path fill="rgb(225,235,239)" stroke="rgb(225,235,239)" stroke-width="1" opacity="1" d="M 359.5 418 L 358.5 420 L 359.5 418 Z " /><path fill="rgb(225,235,239)" stroke="rgb(225,235,239)" stroke-width="1" opacity="1" d="M 344.5 433 L 343.5 435 L 344.5 433 Z " /><path fill="rgb(225,235,240)" stroke="rgb(225,235,240)" stroke-width="1" opacity="1" d="M 256 150 L 512 150 L 512 512 L 256.5 512 L 256 511.5 L 256 466 L 271.5 466 L 272.5 465 L 284.5 464 L 309.5 456 Q 340 442.5 360 418.5 Q 378 397.5 387 367.5 L 391 346.5 L 391 315.5 L 387 294.5 Q 382.1 277.4 374 263.5 Q 361.7 242.3 343.5 227 Q 326.8 212.7 304.5 204 L 284.5 198 L 272.5 197 L 271.5 196 L 256 196 L 256 150 Z " /><path fill="rgb(225,235,240)" stroke="rgb(225,235,240)" stroke-width="1" opacity="1" d="M 305.5 291 L 326 311.5 L 256.5 381 L 256 340.5 L 305.5 291 Z " /><path fill="rgb(139,219,82)" stroke="rgb(139,219,82)" stroke-width="1" opacity="1" d="M 247.5 196 L 255.5 196 L 256 196.5 L 256 339.5 L 240.5 354 L 207.5 321 L 205.5 321 L 186 340.5 L 186 342.5 L 241.5 397 L 256 383.5 L 256 465.5 L 255.5 466 L 247.5 466 L 246.5 465 L 237.5 465 L 222.5 462 L 204.5 456 Q 174 443 154 419.5 Q 138.3 401.7 129 377.5 L 122 349.5 L 121 322.5 L 122 321.5 L 122 312.5 L 124 301.5 L 131 279.5 Q 144 249 167.5 229 Q 183.5 215 204.5 206 L 226.5 199 L 237.5 197 L 246.5 197 L 247.5 196 Z " /><path fill="rgb(139,219,82)" stroke="rgb(139,219,82)" stroke-width="1" opacity="1" d="M 266.5 196 L 269 196.5 L 266.5 197 L 266.5 196 Z " /><path fill="rgb(139,219,82)" stroke="rgb(139,219,82)" stroke-width="1" opacity="1" d="M 341.5 226 L 342.5 228 L 341.5 226 Z " /><path fill="rgb(139,219,82)" stroke="rgb(139,219,82)" stroke-width="1" opacity="1" d="M 359.5 244 L 360.5 246 L 359.5 244 Z " /><path fill="rgb(139,219,82)" stroke="rgb(139,219,82)" stroke-width="1" opacity="1" d="M 390.5 318 L 391 320.5 L 390 320.5 L 390.5 318 Z " /><path fill="rgb(139,219,82)" stroke="rgb(139,219,82)" stroke-width="1" opacity="1" d="M 390.5 341 L 391 343.5 L 390 343.5 L 390.5 341 Z " /><path fill="rgb(139,219,82)" stroke="rgb(139,219,82)" stroke-width="1" opacity="1" d="M 266.5 465 L 269 465.5 L 266.5 466 L 266.5 465 Z " /></svg>