<svg width="512" height="512" version="1.1" xmlns="http://www.w3.org/2000/svg" desc="Created with imagetracer.js version 1.2.6" ><path fill="rgb(0,0,0)" stroke="rgb(0,0,0)" stroke-width="1" opacity="0" d="M 0 0 L 84 0 L 84 40 L 49.5 40 L 41.5 42 Q 22.7 48.2 12 62.5 L 3 78.5 L 0.5 89 L 0 0 Z " /><path fill="rgb(0,0,0)" stroke="rgb(0,0,0)" stroke-width="1" opacity="0" d="M 124 0 L 387.5 0 L 388 0.5 L 388 40 L 124.5 40 L 124 39.5 L 124 0 Z " /><path fill="rgb(0,0,0)" stroke="rgb(0,0,0)" stroke-width="1" opacity="0" d="M 428 0 L 512 0 L 512 88.5 L 511 88.5 Q 506.5 64 489.5 52 Q 478.8 43.2 462.5 40 L 428 40 L 428 0 Z " /><path fill="rgb(0,0,0)" stroke="rgb(0,0,0)" stroke-width="1" opacity="0" d="M 60.5 80 L 84 80 L 84 120 L 124 120 L 124 80.5 L 124.5 80 L 388 80 L 388 120 L 428 120 L 428 80 L 451.5 80 Q 452.7 82.3 457.5 81 L 463.5 84 L 468 88.5 L 471 94.5 Q 469.8 99.2 472 100.5 L 472 148 L 40.5 148 L 40 147.5 L 40 100.5 Q 42.3 99.2 41 94.5 L 44 88.5 L 48.5 84 L 54.5 81 Q 59.3 82.3 60.5 80 Z " /><path fill="rgb(0,0,0)" stroke="rgb(0,0,0)" stroke-width="1" opacity="0" d="M 40 188 L 472 188 L 472 451.5 Q 469.8 452.7 471 457.5 L 468 463.5 L 463.5 468 L 457.5 471 Q 452.7 469.8 451.5 472 L 60.5 472 Q 59.3 469.8 54.5 471 L 48.5 468 L 44 463.5 L 41 457.5 Q 42.3 452.7 40 451.5 L 40 188 Z M 76 230 L 76 270 L 116 270 L 116 230 L 76 230 Z M 156 230 L 156 270 L 196 270 L 196 230 L 156 230 Z M 236 230 L 236 270 L 276 270 L 276 230 L 236 230 Z M 316 230 L 316 270 L 356 270 L 356 230 L 316 230 Z M 396 230 L 396 270 L 436 270 L 436 230 L 396 230 Z M 76 310 L 76 350 L 116 350 L 116 310 L 76 310 Z M 156 310 L 156 350 L 196 350 L 196 310 L 156 310 Z M 236 310 L 236 350 L 276 350 L 276 310 L 236 310 Z M 316 310 L 316 350 L 356 350 L 356 310 L 316 310 Z M 396 310 L 396 350 L 436 350 L 436 310 L 396 310 Z M 76 390 L 76 430 L 116 430 L 116 390 L 76 390 Z M 156 390 L 156 430 L 196 430 L 196 390 L 156 390 Z M 236 390 L 236 430 L 276 430 L 276 390 L 236 390 Z M 316 390 L 316 430 L 356 430 L 356 390 L 316 390 Z " /><path fill="rgb(0,0,0)" stroke="rgb(0,0,0)" stroke-width="1" opacity="0" d="M 0.5 463 Q 5.6 487.4 22.5 500 L 38.5 509 L 49 511.5 L 0 512 L 0.5 463 Z " /><path fill="rgb(0,0,0)" stroke="rgb(0,0,0)" stroke-width="1" opacity="0" d="M 511.5 463 L 512 512 L 463 511.5 Q 487.4 506.4 500 489.5 L 509 473.5 L 511.5 463 Z " /><path fill="rgb(44,219,162)" stroke="rgb(44,219,162)" stroke-width="1" opacity="0.9921568627450981" d="M 84 0 L 124 0 L 124 39.5 L 124.5 40 L 388 40 L 388 0 L 428 0 L 428 40 L 462.5 40 Q 487.3 45.2 500 62.5 Q 505.4 67.5 506 76 L 5.5 76 L 5 74.5 L 9 66.5 L 21.5 53 Q 32.3 43.3 49.5 40 L 84 40 L 84 0 Z " /><path fill="rgb(48,172,181)" stroke="rgb(48,172,181)" stroke-width="1" opacity="0.996078431372549" d="M 0 122 L 40 122 L 40 147.5 L 40.5 148 L 472 148 L 472 122 L 512 122 L 512 173.5 L 511.5 174 L 0 174 L 0 122 Z " /><path fill="rgb(46,198,171)" stroke="rgb(46,198,171)" stroke-width="1" opacity="0.9921568627450981" d="M 506.5 74 L 512 89.5 L 512 122 L 472 122 L 472 99.5 L 470 91.5 L 463.5 84 L 458.5 81 L 453.5 80 L 451.5 80 L 428 80 L 428 120 L 388 120 L 388 80.5 L 387.5 80 L 124 80 L 124 120 L 84 120 L 84 80 L 60.5 80 L 57.5 81 L 51.5 82 L 44 88.5 L 40 99.5 L 40 122 L 0 122 L 0 89.5 L 4 76 L 505.5 76 L 506.5 74 Z " /><path fill="rgb(50,149,191)" stroke="rgb(50,149,191)" stroke-width="1" opacity="1" d="M 0 174 L 511.5 174 L 512 174.5 L 512 254 L 472 254 L 472 188.5 L 471.5 188 L 40 188 L 40 254 L 0 254 L 0 174 Z " /><path fill="rgb(50,149,191)" stroke="rgb(50,149,191)" stroke-width="1" opacity="1" d="M 76 230 L 116 230 L 116 254 L 76 254 L 76 230 Z " /><path fill="rgb(50,149,191)" stroke="rgb(50,149,191)" stroke-width="1" opacity="1" d="M 156 230 L 196 230 L 196 254 L 156 254 L 156 230 Z " /><path fill="rgb(50,149,191)" stroke="rgb(50,149,191)" stroke-width="1" opacity="1" d="M 236 230 L 276 230 L 276 254 L 236 254 L 236 230 Z " /><path fill="rgb(50,149,191)" stroke="rgb(50,149,191)" stroke-width="1" opacity="1" d="M 316 230 L 356 230 L 356 254 L 316 254 L 316 230 Z " /><path fill="rgb(50,149,191)" stroke="rgb(50,149,191)" stroke-width="1" opacity="1" d="M 396 230 L 436 230 L 436 254 L 396 254 L 396 230 Z " /><path fill="rgb(55,97,212)" stroke="rgb(55,97,212)" stroke-width="1" opacity="1" d="M 0 254 L 40 254 L 40 356 L 0 356 L 0 254 Z " /><path fill="rgb(55,97,212)" stroke="rgb(55,97,212)" stroke-width="1" opacity="1" d="M 76 254 L 116 254 L 116 270 L 76 270 L 76 254 Z " /><path fill="rgb(55,97,212)" stroke="rgb(55,97,212)" stroke-width="1" opacity="1" d="M 156 254 L 196 254 L 196 270 L 156 270 L 156 254 Z " /><path fill="rgb(55,97,212)" stroke="rgb(55,97,212)" stroke-width="1" opacity="1" d="M 236 254 L 276 254 L 276 270 L 236 270 L 236 254 Z " /><path fill="rgb(55,97,212)" stroke="rgb(55,97,212)" stroke-width="1" opacity="1" d="M 316 254 L 356 254 L 356 270 L 316 270 L 316 254 Z " /><path fill="rgb(55,97,212)" stroke="rgb(55,97,212)" stroke-width="1" opacity="1" d="M 396 254 L 436 254 L 436 270 L 396 270 L 396 254 Z " /><path fill="rgb(55,97,212)" stroke="rgb(55,97,212)" stroke-width="1" opacity="1" d="M 472 254 L 512 254 L 512 356 L 472 356 L 472 254 Z " /><path fill="rgb(55,97,212)" stroke="rgb(55,97,212)" stroke-width="1" opacity="1" d="M 76 310 L 116 310 L 116 350 L 76 350 L 76 310 Z " /><path fill="rgb(55,97,212)" stroke="rgb(55,97,212)" stroke-width="1" opacity="1" d="M 156 310 L 196 310 L 196 350 L 156 350 L 156 310 Z " /><path fill="rgb(55,97,212)" stroke="rgb(55,97,212)" stroke-width="1" opacity="1" d="M 236 310 L 276 310 L 276 350 L 236 350 L 236 310 Z " /><path fill="rgb(55,97,212)" stroke="rgb(55,97,212)" stroke-width="1" opacity="1" d="M 316 310 L 356 310 L 356 350 L 316 350 L 316 310 Z " /><path fill="rgb(55,97,212)" stroke="rgb(55,97,212)" stroke-width="1" opacity="1" d="M 396 310 L 436 310 L 436 350 L 396 350 L 396 310 Z " /><path fill="rgb(63,12,247)" stroke="rgb(63,12,247)" stroke-width="1" opacity="0.9921568627450981" d="M 0 444 L 39.5 444 L 40 444.5 L 40 452.5 L 44 463.5 L 48.5 468 L 54.5 471 Q 59.3 469.8 60.5 472 L 451.5 472 Q 452.7 469.8 457.5 471 L 463.5 468 L 468 463.5 L 471 457.5 L 472 444 L 512 444 L 512 462.5 Q 506.5 487 489.5 500 Q 478.8 508.8 462.5 512 L 49.5 512 Q 25 506.5 12 489.5 L 2 470.5 L 0 462.5 L 0 444 Z " /><path fill="rgb(60,51,231)" stroke="rgb(60,51,231)" stroke-width="1" opacity="0.996078431372549" d="M 0 356 L 40 356 L 40 444 L 0 444 L 0 356 Z " /><path fill="rgb(60,51,231)" stroke="rgb(60,51,231)" stroke-width="1" opacity="0.996078431372549" d="M 472 356 L 512 356 L 512 444 L 472 444 L 472 356 Z " /><path fill="rgb(60,51,231)" stroke="rgb(60,51,231)" stroke-width="1" opacity="0.996078431372549" d="M 76 390 L 116 390 L 116 430 L 76 430 L 76 390 Z " /><path fill="rgb(60,51,231)" stroke="rgb(60,51,231)" stroke-width="1" opacity="0.996078431372549" d="M 156 390 L 196 390 L 196 430 L 156 430 L 156 390 Z " /><path fill="rgb(60,51,231)" stroke="rgb(60,51,231)" stroke-width="1" opacity="0.996078431372549" d="M 236 390 L 276 390 L 276 430 L 236 430 L 236 390 Z " /><path fill="rgb(60,51,231)" stroke="rgb(60,51,231)" stroke-width="1" opacity="0.996078431372549" d="M 316 390 L 356 390 L 356 430 L 316 430 L 316 390 Z " /></svg>